<svg width="338" height="112" viewBox="0 0 338 112" fill="none" xmlns="http://www.w3.org/2000/svg">
<path d="M225 99.0751V11C238.717 12.5237 245.19 13.9483 254.961 17.3194C263.189 19.862 268.696 22.4508 281.574 31.0401C289.582 24.3833 295.408 21.5094 307.04 17.1793C317.525 13.4437 324.307 12.0938 338 11V98.8806C327.556 99.2007 320.86 100.133 307.656 102.928C300.524 104.582 295.328 106.611 287.112 111H281.379H275.463C268.251 107.448 263.017 105.414 255.39 103.418C246.879 101.452 240.599 100.471 225 99.0751Z" fill="#FDBC11"/>
<path d="M225 99.0751V11C238.82 12.5237 245.342 13.9483 255.187 17.3194C263.476 19.862 269.025 22.4508 282 31.0401L281.803 111H275.843C268.576 107.448 263.303 105.414 255.619 103.418C247.043 101.452 240.717 100.471 225 99.0751Z" fill="#F68E1E"/>
<path d="M266.078 57.9346L281.676 31.9772L297.704 57.9346C295.357 57.8989 294.066 58.3306 291.8 59.7434C288.975 56.551 286.908 55.4796 282.357 54.8808C277.629 55.2235 275.376 56.3062 272.029 59.7434C269.67 58.1837 268.37 57.8563 266.078 57.9346Z" fill="#FCFCFC"/>
<path d="M269.5 108.777L263.416 106.42L263.408 66.3052C263.841 64.8362 264.963 63.9893 266.469 64.0436C267.961 64.0195 269.121 64.7953 269.5 66.3052V108.777Z" fill="#FCFCFC"/>
<path d="M294.095 108.785L300.179 106.427L300.187 66.3066C299.754 64.8374 298.631 63.9904 297.125 64.0447C295.634 64.0206 294.474 64.7965 294.095 66.3066V108.785Z" fill="#FCFCFC"/>
<path d="M288.003 67.0962C288.003 70.5299 285.219 73.3134 281.785 73.3134C278.352 73.3134 275.568 70.5299 275.568 67.0962C275.568 63.6625 278.352 60.8789 281.785 60.8789C285.219 60.8789 288.003 63.6625 288.003 67.0962Z" fill="#FCFCFC"/>
<path d="M275.568 66.3288H288.034V111.619H275.568V66.3288Z" fill="#FCFCFC"/>
<path d="M39.1553 28.7754C39.1553 30.3867 38.5645 31.7832 37.3828 32.9648C36.237 34.1107 34.8584 34.6836 33.2471 34.6836C31.6357 34.6836 30.2393 34.1107 29.0576 32.9648C27.9118 31.7832 27.3389 30.3867 27.3389 28.7754C27.3389 27.1641 27.9118 25.7855 29.0576 24.6396C30.2393 23.4938 31.6357 22.9209 33.2471 22.9209C34.8584 22.9209 36.237 23.4938 37.3828 24.6396C38.5645 25.7855 39.1553 27.1641 39.1553 28.7754ZM63.5938 74H56.5576C56.5576 80.5527 54.3376 86.2103 49.8975 90.9727C45.3499 95.8424 39.8177 98.2773 33.3008 98.2773C26.748 98.2773 21.1442 96.0215 16.4893 91.5098C11.8343 86.998 9.50684 81.4837 9.50684 74.9668V39.5176H21.3232V74.6445C21.3232 77.903 22.4512 80.6602 24.707 82.916C26.9987 85.2077 29.7738 86.3535 33.0322 86.3535C36.2907 86.3535 39.0658 85.2077 41.3574 82.916C43.6491 80.6602 44.7949 77.903 44.7949 74.6445V39.4639H56.5576V62.4521H63.5938V74ZM92.7588 74H60.4248V62.4521H73.7988V39.5176H85.5615V62.4521H92.7588V74ZM91.9531 85.9775C91.9531 87.6247 91.3802 89.0212 90.2344 90.167C89.0885 91.3128 87.6921 91.8857 86.0449 91.8857C84.4336 91.8857 83.055 91.2949 81.9092 90.1133C80.7992 88.9674 80.2441 87.5889 80.2441 85.9775C80.2441 84.3662 80.7992 82.9697 81.9092 81.7881C83.055 80.6423 84.4336 80.0693 86.0449 80.0693C87.6921 80.0693 89.0885 80.6423 90.2344 81.7881C91.3802 82.9339 91.9531 84.3304 91.9531 85.9775ZM78.5254 85.9775C78.5254 87.5889 77.9525 88.9674 76.8066 90.1133C75.6608 91.2949 74.2822 91.8857 72.6709 91.8857C71.0596 91.8857 69.681 91.2949 68.5352 90.1133C67.3893 88.9674 66.8164 87.5889 66.8164 85.9775C66.8164 84.3662 67.3893 82.9697 68.5352 81.7881C69.681 80.6423 71.0596 80.0693 72.6709 80.0693C74.2822 80.0693 75.6608 80.6423 76.8066 81.7881C77.9525 82.9697 78.5254 84.3662 78.5254 85.9775ZM139.648 65.2988C139.648 71.0996 136.497 74 130.195 74H89.6973V62.4521H103.447V39.4639H130.195C136.497 39.4639 139.648 42.3464 139.648 48.1113V65.2988ZM127.563 59.5518V53.751C127.563 51.889 126.543 50.958 124.502 50.958H115.586V62.3984H124.502C126.543 62.3984 127.563 61.4495 127.563 59.5518ZM192.339 74H185.303V86.7295C185.303 94.4281 181.525 98.2773 173.97 98.2773H149.102V86.7832H169.297C172.054 86.7832 173.433 85.4404 173.433 82.7549V74H158.555C152.288 74 149.155 71.1354 149.155 65.4062V48.1113C149.155 42.3464 152.288 39.4639 158.555 39.4639H175.903C182.17 39.4639 185.303 42.3464 185.303 48.1113V62.4521H192.339V74ZM173.325 59.5518V53.751C173.325 51.889 172.287 50.958 170.21 50.958H164.141C162.028 50.958 160.972 51.889 160.972 53.751V59.5518C160.972 61.4854 162.028 62.4521 164.141 62.4521H170.21C172.287 62.4521 173.325 61.4854 173.325 59.5518ZM214.414 62.5596C214.414 70.1865 210.457 74 202.544 74H189.116V62.4521H197.28C200.718 62.4521 202.437 60.7155 202.437 57.2422V12.9844H214.414V62.5596Z" fill="#FDBC11"/>
</svg>
